<svg xmlns="http://www.w3.org/2000/svg" viewBox="0 0 960 220">
  <defs>
    <clipPath id="markClip">
      <rect x="0" y="0" width="64" height="64" rx="14" ry="14" />
    </clipPath>
    <pattern id="bannerBrick" width="16" height="16" patternUnits="userSpaceOnUse">
      <line x1="0" y1="8" x2="16" y2="8" stroke="#3d3148" stroke-opacity="0.55" stroke-width="0.6" />
      <line x1="8" y1="0" x2="8" y2="8" stroke="#3d3148" stroke-opacity="0.55" stroke-width="0.6" />
      <line x1="0" y1="16" x2="16" y2="16" stroke="#3d3148" stroke-opacity="0.55" stroke-width="0.6" />
    </pattern>
    <radialGradient id="bannerVignette" cx="50%" cy="38%" r="75%">
      <stop offset="55%" stop-color="#000000" stop-opacity="0" />
      <stop offset="100%" stop-color="#000000" stop-opacity="0.22" />
    </radialGradient>
  </defs>

  <rect x="0" y="0" width="960" height="220" fill="#ebf1ec" />

  <g transform="translate(38,38) scale(2.1875)">
    <g clip-path="url(#markClip)">
      <rect x="0" y="0" width="64" height="64" fill="#5b4a68" />
      <rect x="0" y="0" width="64" height="64" fill="url(#bannerBrick)" />
      <rect x="0" y="0" width="64" height="64" fill="url(#bannerVignette)" />
    </g>
    <g transform="rotate(-4 30 33)">
      <rect x="16.6" y="18.2" width="30" height="34" rx="2" fill="#241d1d" opacity="0.28" />
      <path d="M15 16 H41 L45 20 V50 H15 Z" fill="#fffffa" />
      <path d="M41 16 L45 20 L41 20 Z" fill="#e7e1d2" />
      <rect x="20" y="27" width="16" height="1.7" rx="0.85" fill="#241d1d" opacity="0.5" />
      <rect x="20" y="32.4" width="20" height="1.7" rx="0.85" fill="#241d1d" opacity="0.38" />
      <rect x="20" y="37.8" width="12" height="1.7" rx="0.85" fill="#241d1d" opacity="0.38" />
      <ellipse cx="30" cy="17.7" rx="2.6" ry="1" fill="#241d1d" opacity="0.22" />
      <circle cx="30" cy="16.4" r="2.7" fill="#c1554a" />
      <circle cx="30" cy="16.4" r="2.7" fill="none" stroke="#8f382f" stroke-width="0.5" />
      <circle cx="29" cy="15.4" r="0.85" fill="#e8a79e" />
    </g>
  </g>

  <text x="212" y="112" font-family="Georgia, 'Iowan Old Style', 'Palatino Linotype', serif" font-size="56" fill="#241d1d">The Wallpost</text>
  <text x="214" y="146" font-family="'Segoe UI', 'Helvetica Neue', Arial, sans-serif" font-size="18" letter-spacing="2.5" fill="#241d1d" fill-opacity="0.6">AN ANONYMOUS MESSAGE WALL</text>

  <rect x="214" y="168" width="686" height="3" rx="1.5" fill="#c1554a" />
</svg>
